<svg width="512" height="512" viewBox="0 0 512 512" fill="none" xmlns="http://www.w3.org/2000/svg">
  <!-- Fondo circular con gradiente -->
  <defs>
    <linearGradient id="bgGradient" x1="0%" y1="0%" x2="100%" y2="100%">
      <stop offset="0%" style="stop-color:#2563eb;stop-opacity:1" />
      <stop offset="100%" style="stop-color:#1d4ed8;stop-opacity:1" />
    </linearGradient>
    <filter id="shadow" x="-50%" y="-50%" width="200%" height="200%">
      <feDropShadow dx="0" dy="4" stdDeviation="8" flood-opacity="0.15"/>
    </filter>
  </defs>
  
  <!-- Círculo de fondo -->
  <circle cx="256" cy="256" r="240" fill="url(#bgGradient)" filter="url(#shadow)"/>
  
  <!-- Icono de video (play button) -->
  <g transform="translate(140, 180)">
    <rect x="0" y="0" width="160" height="110" rx="8" fill="white" opacity="0.9"/>
    <polygon points="60,35 100,55 60,75" fill="#2563eb"/>
  </g>
  
  <!-- Ondas de sonido -->
  <g transform="translate(320, 200)">
    <rect x="0" y="20" width="8" height="40" rx="4" fill="white" opacity="0.7">
      <animate attributeName="height" values="40;60;40" dur="1.5s" repeatCount="indefinite"/>
      <animate attributeName="y" values="20;10;20" dur="1.5s" repeatCount="indefinite"/>
    </rect>
    <rect x="16" y="10" width="8" height="60" rx="4" fill="white" opacity="0.8">
      <animate attributeName="height" values="60;80;60" dur="1.5s" repeatCount="indefinite" begin="0.3s"/>
      <animate attributeName="y" values="10;0;10" dur="1.5s" repeatCount="indefinite" begin="0.3s"/>
    </rect>
    <rect x="32" y="15" width="8" height="50" rx="4" fill="white" opacity="0.9">
      <animate attributeName="height" values="50;70;50" dur="1.5s" repeatCount="indefinite" begin="0.6s"/>
      <animate attributeName="y" values="15;5;15" dur="1.5s" repeatCount="indefinite" begin="0.6s"/>
    </rect>
  </g>
  
  <!-- Texto (líneas de transcripción) -->
  <g transform="translate(140, 310)">
    <rect x="0" y="0" width="140" height="4" rx="2" fill="white" opacity="0.8"/>
    <rect x="0" y="12" width="180" height="4" rx="2" fill="white" opacity="0.7"/>
    <rect x="0" y="24" width="120" height="4" rx="2" fill="white" opacity="0.6"/>
  </g>
</svg>